<svg width="15" height="19" viewBox="0 0 15 19" fill="none" xmlns="http://www.w3.org/2000/svg">
<path d="M13.0835 9.01562H14.771C14.771 10.7031 14.1772 12.1875 12.9897 13.4688C11.8335 14.7188 10.4272 15.4688 8.771 15.7188V19H6.80225V15.7188C5.146 15.4688 3.72412 14.7188 2.53662 13.4688C1.38037 12.1875 0.802246 10.7031 0.802246 9.01562H2.48975C2.48975 10.4844 3.00537 11.7031 4.03662 12.6719C5.09912 13.6094 6.34912 14.0781 7.78662 14.0781C9.22412 14.0781 10.4585 13.6094 11.4897 12.6719C12.5522 11.7031 13.0835 10.4844 13.0835 9.01562ZM9.896 11.125C9.30225 11.7188 8.59912 12.0156 7.78662 12.0156C6.97412 12.0156 6.271 11.7188 5.67725 11.125C5.0835 10.5312 4.78662 9.82812 4.78662 9.01562V3.01562C4.78662 2.20313 5.0835 1.5 5.67725 0.90625C6.271 0.3125 6.97412 0.015625 7.78662 0.015625C8.59912 0.015625 9.30225 0.3125 9.896 0.90625C10.4897 1.5 10.7866 2.20313 10.7866 3.01562V9.01562C10.7866 9.82812 10.4897 10.5312 9.896 11.125Z" fill="#041832"/>
</svg>
